<mxfile host="app.diagrams.net" modified="2024-01-19T09:27:03.361Z" agent="Mozilla/5.0 (Windows NT 10.0; Win64; x64; rv:121.0) Gecko/20100101 Firefox/121.0" etag="Y7QFguk25hOyX2ouowLj" version="22.1.21" type="github">
  <diagram name="Page-1" id="uoqCRapn5dEFLbZdNSTu">
    <mxGraphModel dx="1050" dy="558" grid="1" gridSize="10" guides="1" tooltips="1" connect="1" arrows="1" fold="1" page="1" pageScale="1" pageWidth="827" pageHeight="1169" math="0" shadow="0">
      <root>
        <mxCell id="0" />
        <mxCell id="1" parent="0" />
        <mxCell id="m9VSQAJPFXlnu8a3aXQG-1" value="Dev" style="ellipse;whiteSpace=wrap;html=1;strokeColor=#E07A5F;fontColor=#393C56;fillColor=#F2CC8F;labelBackgroundColor=none;" vertex="1" parent="1">
          <mxGeometry x="180" y="70" width="80" height="80" as="geometry" />
        </mxCell>
        <mxCell id="m9VSQAJPFXlnu8a3aXQG-2" value="Git" style="whiteSpace=wrap;html=1;strokeColor=#E07A5F;fontColor=#393C56;fillColor=#F2CC8F;" vertex="1" parent="1">
          <mxGeometry x="414" y="80" width="120" height="60" as="geometry" />
        </mxCell>
        <mxCell id="m9VSQAJPFXlnu8a3aXQG-10" style="edgeStyle=orthogonalEdgeStyle;rounded=0;orthogonalLoop=1;jettySize=auto;html=1;exitX=0.5;exitY=1;exitDx=0;exitDy=0;entryX=0.5;entryY=0;entryDx=0;entryDy=0;strokeColor=#E07A5F;fontColor=#393C56;fillColor=#F2CC8F;" edge="1" parent="1" source="m9VSQAJPFXlnu8a3aXQG-3" target="m9VSQAJPFXlnu8a3aXQG-5">
          <mxGeometry relative="1" as="geometry" />
        </mxCell>
        <mxCell id="m9VSQAJPFXlnu8a3aXQG-3" value="Jenkins" style="rhombus;whiteSpace=wrap;html=1;strokeColor=#E07A5F;fontColor=#393C56;fillColor=#F2CC8F;" vertex="1" parent="1">
          <mxGeometry x="310" y="300" width="80" height="80" as="geometry" />
        </mxCell>
        <mxCell id="m9VSQAJPFXlnu8a3aXQG-4" value="EC2 instance" style="rounded=0;whiteSpace=wrap;html=1;strokeColor=#E07A5F;fontColor=#393C56;fillColor=#F2CC8F;" vertex="1" parent="1">
          <mxGeometry x="60" y="460" width="120" height="60" as="geometry" />
        </mxCell>
        <mxCell id="m9VSQAJPFXlnu8a3aXQG-5" value="" style="rounded=0;whiteSpace=wrap;html=1;strokeColor=#E07A5F;fontColor=#393C56;fillColor=#F2CC8F;" vertex="1" parent="1">
          <mxGeometry x="240" y="460" width="120" height="60" as="geometry" />
        </mxCell>
        <mxCell id="m9VSQAJPFXlnu8a3aXQG-6" value="" style="rounded=0;whiteSpace=wrap;html=1;strokeColor=#E07A5F;fontColor=#393C56;fillColor=#F2CC8F;" vertex="1" parent="1">
          <mxGeometry x="420" y="460" width="120" height="60" as="geometry" />
        </mxCell>
        <mxCell id="m9VSQAJPFXlnu8a3aXQG-8" value="" style="endArrow=classic;startArrow=classic;html=1;rounded=0;strokeColor=#E07A5F;fontColor=#393C56;fillColor=#F2CC8F;entryX=0;entryY=1;entryDx=0;entryDy=0;exitX=0.45;exitY=0.017;exitDx=0;exitDy=0;exitPerimeter=0;" edge="1" parent="1" source="m9VSQAJPFXlnu8a3aXQG-4" target="m9VSQAJPFXlnu8a3aXQG-3">
          <mxGeometry width="50" height="50" relative="1" as="geometry">
            <mxPoint x="160" y="430" as="sourcePoint" />
            <mxPoint x="210" y="380" as="targetPoint" />
            <Array as="points" />
          </mxGeometry>
        </mxCell>
        <mxCell id="m9VSQAJPFXlnu8a3aXQG-9" value="links to EC2 instance" style="text;html=1;align=center;verticalAlign=middle;resizable=0;points=[];autosize=1;strokeColor=none;fillColor=none;fontColor=#393C56;" vertex="1" parent="1">
          <mxGeometry x="135" y="388" width="130" height="30" as="geometry" />
        </mxCell>
      </root>
    </mxGraphModel>
  </diagram>
</mxfile>
